# xmcd
#
# Track frame offsets: 
#        150
#        15694
#        40440
#        61967
#        86768
#        121053
#        139715
#        161143
#        185877
#        224260
#
# Disc length: 3188 seconds
#
# Revision: 0
# Processed by: cddbd v1.5.1PL2 Copyright (c) Steve Scherf et al.
# Submitted via: ExactAudioCopy v0.95b4
#
DISCID=900c720a
DTITLE=Poni Hoax - Poni Hoax
DYEAR=2006
DGENRE=Electronic
TTITLE0=She's On The Radio
TTITLE1=Budapest (feat. Olga Kouklaki)
TTITLE2=Carrie Ann
TTITLE3=Involutive Star
TTITLE4=Cheerleader In My Dreams
TTITLE5=Drunks And Painters On Parade
TTITLE6=I Shall Take It Anyway
TTITLE7=L.A. Murder Motel
TTITLE8=She Sells Anger
TTITLE9=Le Fil Du Temps (feat. Ami Sioux)
EXTD=
EXTT0=
EXTT1=
EXTT2=
EXTT3=
EXTT4=
EXTT5=
EXTT6=
EXTT7=
EXTT8=
EXTT9=
PLAYORDER=
